<?xml version="1.0" encoding="UTF-8" standalone="no"?>
<!DOCTYPE svg PUBLIC "-//W3C//DTD SVG 1.1//EN" "http://www.w3.org/Graphics/SVG/1.1/DTD/svg11.dtd">
<svg width="100%" height="100%" viewBox="0 0 50 50" version="1.1" xmlns="http://www.w3.org/2000/svg" xmlns:xlink="http://www.w3.org/1999/xlink" xml:space="preserve" xmlns:serif="http://www.serif.com/" style="fill-rule:evenodd;clip-rule:evenodd;stroke-linejoin:round;stroke-miterlimit:2;">
    <g transform="matrix(0.197186,0,0,0.197186,-73.5929,-122.889)">
        <g transform="matrix(1,0,0,1,372.5,623.925)">
            <path d="M200.217,103.874C202.303,103.874 203.995,102.183 203.995,100.097C203.995,98.01 202.303,96.319 200.217,96.319C198.131,96.319 196.439,98.01 196.439,100.097C196.439,102.183 198.131,103.874 200.217,103.874Z" style="fill:white;fill-rule:nonzero;"/>
        </g>
        <g transform="matrix(1,0,0,1,372.5,623.925)">
            <path d="M193.634,85.937C196.763,85.937 199.3,83.4 199.3,80.27C199.3,77.141 196.763,74.604 193.634,74.604C190.504,74.604 187.968,77.141 187.968,80.27C187.968,83.4 190.504,85.937 193.634,85.937Z" style="fill:white;fill-rule:nonzero;"/>
        </g>
        <g transform="matrix(1,0,0,1,372.5,623.925)">
            <path d="M177.025,64.209C182.502,64.209 186.941,59.769 186.941,54.293C186.941,48.816 182.502,44.377 177.025,44.377C171.549,44.377 167.109,48.816 167.109,54.293C167.109,59.769 171.549,64.209 177.025,64.209Z" style="fill:white;fill-rule:nonzero;"/>
        </g>
        <g transform="matrix(1,0,0,1,372.5,623.925)">
            <path d="M145.412,45.327C153.236,45.327 159.578,38.984 159.578,31.16C159.578,23.337 153.236,16.994 145.412,16.994C137.588,16.994 131.246,23.337 131.246,31.16C131.246,38.984 137.588,45.327 145.412,45.327Z" style="fill:white;fill-rule:nonzero;"/>
        </g>
        <g transform="matrix(1,0,0,1,372.5,623.925)">
            <path d="M3.778,103.874C1.691,103.874 -0,102.183 -0,100.097C-0,98.01 1.691,96.319 3.778,96.319C5.864,96.319 7.555,98.01 7.555,100.097C7.555,102.183 5.864,103.874 3.778,103.874Z" style="fill:white;fill-rule:nonzero;"/>
        </g>
        <g transform="matrix(1,0,0,1,372.5,623.925)">
            <path d="M10.361,85.937C7.231,85.937 4.694,83.4 4.694,80.27C4.694,77.141 7.231,74.604 10.361,74.604C13.49,74.604 16.027,77.141 16.027,80.27C16.027,83.4 13.49,85.937 10.361,85.937Z" style="fill:white;fill-rule:nonzero;"/>
        </g>
        <g transform="matrix(1,0,0,1,372.5,623.925)">
            <path d="M26.996,64.209C21.52,64.209 17.08,59.769 17.08,54.293C17.08,48.816 21.52,44.377 26.996,44.377C32.473,44.377 36.913,48.816 36.913,54.293C36.913,59.769 32.473,64.209 26.996,64.209Z" style="fill:white;fill-rule:nonzero;"/>
        </g>
        <g transform="matrix(1,0,0,1,372.5,623.925)">
            <path d="M59.47,45.327C51.647,45.327 45.304,38.984 45.304,31.16C45.304,23.337 51.647,16.994 59.47,16.994C67.294,16.994 73.637,23.337 73.637,31.16C73.637,38.984 67.294,45.327 59.47,45.327Z" style="fill:white;fill-rule:nonzero;"/>
        </g>
        <g transform="matrix(1,0,0,1,372.5,623.925)">
            <path d="M102.522,38.712C112.171,38.712 119.994,30.89 119.994,21.24C119.994,11.591 112.171,3.769 102.522,3.769C92.873,3.769 85.051,11.591 85.051,21.24C85.051,30.89 92.873,38.712 102.522,38.712Z" style="fill:white;fill-rule:nonzero;"/>
        </g>
        <g transform="matrix(1,0,0,1,372.5,623.925)">
            <path d="M104.362,51.906C104.362,49.819 102.67,48.128 100.584,48.128C98.498,48.128 96.806,49.819 96.806,51.906C96.806,53.992 98.498,55.683 100.584,55.683C102.67,55.683 104.362,53.992 104.362,51.906Z" style="fill:white;fill-rule:nonzero;"/>
        </g>
        <g transform="matrix(1,0,0,1,372.5,623.925)">
            <path d="M86.423,58.522C86.423,55.393 83.886,52.856 80.756,52.856C77.627,52.856 75.09,55.393 75.09,58.522C75.09,61.652 77.627,64.189 80.756,64.189C83.886,64.189 86.423,61.652 86.423,58.522Z" style="fill:white;fill-rule:nonzero;"/>
        </g>
        <g transform="matrix(1,0,0,1,372.5,623.925)">
            <path d="M64.695,75.131C64.695,69.654 60.255,65.215 54.779,65.215C49.302,65.215 44.862,69.654 44.862,75.131C44.862,80.608 49.302,85.047 54.779,85.047C60.255,85.047 64.695,80.608 64.695,75.131Z" style="fill:white;fill-rule:nonzero;"/>
        </g>
        <g transform="matrix(1,0,0,1,372.5,623.925)">
            <path d="M45.811,106.699C45.811,98.876 39.469,92.533 31.645,92.533C23.822,92.533 17.479,98.876 17.479,106.699C17.479,114.523 23.822,120.865 31.645,120.865C39.469,120.865 45.811,114.523 45.811,106.699Z" style="fill:white;fill-rule:nonzero;"/>
        </g>
        <g transform="matrix(1,0,0,1,372.5,623.925)">
            <path d="M104.362,248.373C104.362,250.46 102.67,252.151 100.584,252.151C98.498,252.151 96.806,250.46 96.806,248.373C96.806,246.287 98.498,244.596 100.584,244.596C102.67,244.596 104.362,246.287 104.362,248.373Z" style="fill:white;fill-rule:nonzero;"/>
        </g>
        <g transform="matrix(1,0,0,1,372.5,623.925)">
            <path d="M86.423,241.773C86.423,244.903 83.886,247.44 80.756,247.44C77.627,247.44 75.09,244.903 75.09,241.773C75.09,238.644 77.627,236.107 80.756,236.107C83.886,236.107 86.423,238.644 86.423,241.773Z" style="fill:white;fill-rule:nonzero;"/>
        </g>
        <g transform="matrix(1,0,0,1,372.5,623.925)">
            <path d="M64.695,225.208C64.695,230.685 60.255,235.124 54.779,235.124C49.302,235.124 44.862,230.685 44.862,225.208C44.862,219.732 49.302,215.292 54.779,215.292C60.255,215.292 64.695,219.732 64.695,225.208Z" style="fill:white;fill-rule:nonzero;"/>
        </g>
        <g transform="matrix(1,0,0,1,372.5,623.925)">
            <path d="M45.811,192.66C45.811,200.484 39.469,206.826 31.645,206.826C23.822,206.826 17.479,200.484 17.479,192.66C17.479,184.836 23.822,178.494 31.645,178.494C39.469,178.494 45.811,184.836 45.811,192.66Z" style="fill:white;fill-rule:nonzero;"/>
        </g>
        <g transform="matrix(1,0,0,1,372.5,623.925)">
            <path d="M39.198,149.636C39.198,139.987 31.376,132.165 21.726,132.165C12.077,132.165 4.255,139.987 4.255,149.636C4.255,159.285 12.077,167.108 21.726,167.108C31.376,167.108 39.198,159.285 39.198,149.636Z" style="fill:white;fill-rule:nonzero;"/>
        </g>
        <g transform="matrix(1,0,0,1,372.5,623.925)">
            <path d="M54.786,147.321C52.7,147.321 51.009,149.012 51.009,151.099C51.009,153.185 52.7,154.876 54.786,154.876C56.873,154.876 58.564,153.185 58.564,151.099C58.564,149.012 56.873,147.321 54.786,147.321Z" style="fill:white;fill-rule:nonzero;"/>
        </g>
        <g transform="matrix(1,0,0,1,372.5,623.925)">
            <path d="M61.366,165.25C58.236,165.25 55.699,167.787 55.699,170.916C55.699,174.046 58.236,176.583 61.366,176.583C64.495,176.583 67.032,174.046 67.032,170.916C67.032,167.787 64.495,165.25 61.366,165.25Z" style="fill:white;fill-rule:nonzero;"/>
        </g>
        <g transform="matrix(1,0,0,1,372.5,623.925)">
            <path d="M77.913,187.026C72.436,187.026 67.997,191.466 67.997,196.942C67.997,202.419 72.436,206.859 77.913,206.859C83.39,206.859 87.829,202.419 87.829,196.942C87.829,191.466 83.39,187.026 77.913,187.026Z" style="fill:white;fill-rule:nonzero;"/>
        </g>
        <g transform="matrix(1,0,0,1,372.5,623.925)">
            <path d="M109.526,205.848C101.703,205.848 95.36,212.191 95.36,220.014C95.36,227.838 101.703,234.18 109.526,234.18C117.35,234.18 123.692,227.838 123.692,220.014C123.692,212.191 117.35,205.848 109.526,205.848Z" style="fill:white;fill-rule:nonzero;"/>
        </g>
        <g transform="matrix(1,0,0,1,372.5,623.925)">
            <path d="M251.223,147.321C253.31,147.321 255.001,149.012 255.001,151.099C255.001,153.185 253.31,154.876 251.223,154.876C249.137,154.876 247.446,153.185 247.446,151.099C247.446,149.012 249.137,147.321 251.223,147.321Z" style="fill:white;fill-rule:nonzero;"/>
        </g>
        <g transform="matrix(1,0,0,1,372.5,623.925)">
            <path d="M244.629,165.25C247.758,165.25 250.295,167.787 250.295,170.916C250.295,174.046 247.758,176.583 244.629,176.583C241.499,176.583 238.962,174.046 238.962,170.916C238.962,167.787 241.499,165.25 244.629,165.25Z" style="fill:white;fill-rule:nonzero;"/>
        </g>
        <g transform="matrix(1,0,0,1,372.5,623.925)">
            <path d="M228.07,187.026C233.547,187.026 237.986,191.466 237.986,196.942C237.986,202.419 233.547,206.859 228.07,206.859C222.593,206.859 218.154,202.419 218.154,196.942C218.154,191.466 222.593,187.026 228.07,187.026Z" style="fill:white;fill-rule:nonzero;"/>
        </g>
        <g transform="matrix(1,0,0,1,372.5,623.925)">
            <path d="M152.539,212.525C142.89,212.525 135.067,220.347 135.067,229.996C135.067,239.645 142.89,247.468 152.539,247.468C162.188,247.468 170.01,239.645 170.01,229.996C170.01,220.347 162.188,212.525 152.539,212.525Z" style="fill:white;fill-rule:nonzero;"/>
        </g>
        <g transform="matrix(1,0,0,1,372.5,623.925)">
            <path d="M189.826,177.038C189.826,182.515 194.266,186.954 199.742,186.954C205.219,186.954 209.659,182.515 209.659,177.038C209.659,171.561 205.219,167.122 199.742,167.122C194.266,167.122 189.826,171.561 189.826,177.038Z" style="fill:white;fill-rule:nonzero;"/>
        </g>
        <g transform="matrix(1,0,0,1,372.5,623.925)">
            <path d="M208.71,145.445C208.71,153.269 215.052,159.611 222.876,159.611C230.7,159.611 237.042,153.269 237.042,145.445C237.042,137.622 230.7,131.279 222.876,131.279C215.052,131.279 208.71,137.622 208.71,145.445Z" style="fill:white;fill-rule:nonzero;"/>
        </g>
        <g transform="matrix(1,0,0,1,372.5,623.925)">
            <path d="M150.162,3.778C150.162,1.691 151.853,-0 153.94,-0C156.026,-0 157.717,1.691 157.717,3.778C157.717,5.864 156.026,7.555 153.94,7.555C151.853,7.555 150.162,5.864 150.162,3.778Z" style="fill:white;fill-rule:nonzero;"/>
        </g>
        <g transform="matrix(1,0,0,1,372.5,623.925)">
            <path d="M168.108,10.393C168.108,7.263 170.645,4.726 173.774,4.726C176.903,4.726 179.44,7.263 179.44,10.393C179.44,13.522 176.903,16.059 173.774,16.059C170.645,16.059 168.108,13.522 168.108,10.393Z" style="fill:white;fill-rule:nonzero;"/>
        </g>
        <g transform="matrix(1,0,0,1,372.5,623.925)">
            <path d="M189.826,26.9C189.826,21.424 194.266,16.984 199.742,16.984C205.219,16.984 209.659,21.424 209.659,26.9C209.659,32.377 205.219,36.816 199.742,36.816C194.266,36.816 189.826,32.377 189.826,26.9Z" style="fill:white;fill-rule:nonzero;"/>
        </g>
        <g transform="matrix(1,0,0,1,372.5,623.925)">
            <path d="M208.71,59.485C208.71,51.661 215.052,45.319 222.876,45.319C230.7,45.319 237.042,51.661 237.042,59.485C237.042,67.308 230.7,73.651 222.876,73.651C215.052,73.651 208.71,67.308 208.71,59.485Z" style="fill:white;fill-rule:nonzero;"/>
        </g>
        <g transform="matrix(1,0,0,1,372.5,623.925)">
            <path d="M215.322,102.506C215.322,112.155 223.144,119.977 232.794,119.977C242.443,119.977 250.265,112.155 250.265,102.506C250.265,92.856 242.443,85.034 232.794,85.034C223.144,85.034 215.322,92.856 215.322,102.506Z" style="fill:white;fill-rule:nonzero;"/>
        </g>
        <g transform="matrix(1,0,0,1,372.5,623.925)">
            <path d="M61.894,120.781C56.873,157.389 82.536,191.089 119.146,196.11C133.227,198.042 146.76,195.434 158.534,189.397L191.998,233.623C193.901,236.01 196.485,237.32 199.301,237.706C205.35,238.536 210.361,234.549 211.19,228.499C211.591,225.577 210.801,222.814 209.3,220.588L176.015,176.6C185.772,166.674 192.43,153.772 194.461,138.963C199.482,102.353 173.936,68.564 137.328,63.543C100.717,58.522 66.915,84.171 61.894,120.781ZM77.957,122.984C81.776,95.136 107.277,75.785 135.125,79.605C162.868,83.41 182.321,108.926 178.502,136.774C174.697,164.518 149.078,183.957 121.335,180.152C93.487,176.332 74.152,150.728 77.957,122.984Z" style="fill:rgb(255,205,0);fill-rule:nonzero;"/>
        </g>
    </g>
</svg>
